<?xml version="1.0" encoding="utf-8"?>
<svg xmlns="http://www.w3.org/2000/svg" viewBox="0 0 64 64" width="64" height="64">
  <style type="text/css">
    .st0{fill:white;}
  </style>
  <g transform="scale(0.9) translate(5, 5)">
	<path class="st0" d="M42.86,41.96h-19.9l-6.49,8.44l4.39,13.75c3.73,1.47,7.8,2.29,12.05,2.29c4.22,0,8.25-0.8,11.95-2.25
		l4.21-13.6L42.86,41.96z"/>
	<polygon class="st0" points="21.56,33.78 23.29,39.32 42.57,39.32 43.18,37.35 48.55,20.14 38.58,13.07 32.93,9.06 17.3,20.14 	"/>
	<path class="st0" d="M48.1,62.73c5.37-2.8,9.88-7.02,13.01-12.18l-9.55,1.03L48.1,62.73z"/>
	<path class="st0" d="M61.7,17.51l-5.75,1.73l-4.79,1.44l-6.04,19.37L45,40.4l6.17,8.56l11.46-1.23c2.06-4.3,3.22-9.12,3.22-14.21
		C65.85,27.7,64.34,22.25,61.7,17.51"/>
	<path class="st0" d="M4.68,50.44c3.1,5.17,7.59,9.41,12.94,12.23l-3.61-11.29L4.68,50.44z"/>
	<path class="st0" d="M20.85,40.38l-1.78-5.7l-4.38-14.02L4.33,17.2C1.58,22.01,0,27.58,0,33.51c0,5.05,1.14,9.84,3.17,14.11
		l11.23,1.13L20.85,40.38z"/>
	<path class="st0" d="M31.61,6.75l0.03-1.73l0.07-4.4C20.94,1.01,11.49,6.57,5.77,14.89l9.76,3.26L31.61,6.75z"/>
	<path class="st0" d="M50.34,18.16l9.94-2.99C54.61,6.75,45.16,1.09,34.36,0.62l-0.04,2.42l-0.06,3.72l5.81,4.12L50.34,18.16z"/>
</g>
</svg>
